<svg width="65" height="64" viewBox="0 0 65 64" fill="none" xmlns="http://www.w3.org/2000/svg">
<path d="M41.0188 20.3897C41.7508 21.1217 42.9368 21.1237 43.6688 20.3897L46.2768 17.7817C47.0078 17.0497 47.0058 15.8637 46.2768 15.1307L39.6938 8.54967C38.9638 7.81767 37.7778 7.81767 37.0458 8.54967L34.4368 11.1577C33.7068 11.8897 33.7068 13.0757 34.4368 13.8057L41.0188 20.3897Z" fill="url(#paint0_linear_46_1125)"/>
<path d="M25.4328 36.2677C26.1638 36.9967 27.3498 36.9967 28.0808 36.2677L30.6898 33.6577C31.4218 32.9277 31.4218 31.7407 30.6898 31.0087L24.1068 24.4257C23.3758 23.6957 22.1898 23.6937 21.4578 24.4257L18.8498 27.0337C18.1178 27.7657 18.1198 28.9517 18.8498 29.6837L25.4328 36.2677Z" fill="url(#paint1_linear_46_1125)"/>
<path d="M55.3147 36.8937L52.6677 34.2437C51.9337 33.5137 50.7507 33.5137 50.0197 34.2437L48.8587 35.4037L37.6537 24.1967L40.0807 21.7687L33.3477 15.0377L30.9197 17.4657L27.8277 20.5557L25.4537 22.9297L32.1857 29.6627L34.5627 27.2897L45.7657 38.4947L44.7177 39.5437C43.9857 40.2727 43.9837 41.4597 44.7177 42.1917L47.3647 44.8397C48.0987 45.5737 49.2837 45.5737 50.0147 44.8397L55.3137 39.5427C56.0467 38.8097 56.0467 37.6257 55.3147 36.8937Z" fill="url(#paint2_linear_46_1125)"/>
<path d="M35.7437 44.9427C35.7437 43.7437 34.7717 42.7697 33.5707 42.7697H16.6027C15.4027 42.7697 14.4297 43.7437 14.4297 44.9427V48.4697H9.66675V55.8587H40.2247V48.4697H35.7437V44.9427Z" fill="url(#paint3_linear_46_1125)"/>
<defs>
<linearGradient id="paint0_linear_46_1125" x1="40.3568" y1="8.00067" x2="40.3568" y2="20.9394" gradientUnits="userSpaceOnUse">
<stop stop-color="#EF8080"/>
<stop offset="1" stop-color="#F0145A"/>
</linearGradient>
<linearGradient id="paint1_linear_46_1125" x1="24.7701" y1="23.8774" x2="24.7701" y2="36.8144" gradientUnits="userSpaceOnUse">
<stop stop-color="#EF8080"/>
<stop offset="1" stop-color="#F0145A"/>
</linearGradient>
<linearGradient id="paint2_linear_46_1125" x1="40.6587" y1="15.0377" x2="40.6587" y2="45.3902" gradientUnits="userSpaceOnUse">
<stop stop-color="#EF8080"/>
<stop offset="1" stop-color="#F0145A"/>
</linearGradient>
<linearGradient id="paint3_linear_46_1125" x1="24.9457" y1="42.7697" x2="24.9457" y2="55.8587" gradientUnits="userSpaceOnUse">
<stop stop-color="#EF8080"/>
<stop offset="1" stop-color="#F0145A"/>
</linearGradient>
</defs>
</svg>
