<svg width="65" height="64" viewBox="0 0 65 64" fill="none" xmlns="http://www.w3.org/2000/svg">
<path d="M41.5651 37.6966C43.9172 37.6966 46.243 38.2849 48.291 39.3979C48.663 39.5984 49.0043 39.8373 49.3528 40.0672C52.714 33.4873 54.4879 26.5283 54.4879 19.7393C54.4879 19.3578 54.4879 18.9639 54.4757 18.5701C54.451 18.0163 54.0572 17.5362 53.5033 17.4132C46.0695 15.7886 39.3372 11.7639 34.0449 5.78242L33.2572 4.8839C33.0233 4.61317 32.691 4.46548 32.3341 4.46548C31.9525 4.41628 31.6572 4.60085 31.4233 4.85934L30.2172 6.18859C25.1956 11.7147 18.8695 15.5301 11.928 17.2286L11.128 17.4254C10.5864 17.5486 10.2049 18.0286 10.1926 18.5824C9.74949 35.887 19.9649 48.3301 24.371 52.8839C25.564 54.1087 26.894 55.3261 28.1587 56.3324C27.6843 54.9016 27.4112 53.3961 27.4112 51.8504C27.4112 44.0457 33.7604 37.6966 41.5651 37.6966Z" fill="url(#paint0_linear_46_1119)"/>
<path d="M47.1155 41.5609C45.4171 40.6379 43.4971 40.1578 41.5647 40.1578C35.1155 40.1578 29.8724 45.4009 29.8724 51.8501C29.8724 54.0286 30.4633 56.1578 31.5955 57.9794C33.7494 61.4625 37.4663 63.5425 41.5647 63.5425C48.0017 63.5425 53.2571 58.2994 53.2571 51.8501C53.2571 47.5425 50.9063 43.604 47.1155 41.5609ZM47.553 50.2934L38.4081 57.4099L35.2861 52.5265C34.9195 51.9538 35.0872 51.193 35.6599 50.827C36.2332 50.4604 36.9947 50.6293 37.3594 51.2008L39.0271 53.809L46.0409 48.351C46.5764 47.9334 47.3504 48.0289 47.7681 48.5662C48.1858 49.1028 48.089 49.8763 47.553 50.2934Z" fill="url(#paint1_linear_46_1119)"/>
<defs>
<linearGradient id="paint0_linear_46_1119" x1="32.3333" y1="4.45752" x2="32.3333" y2="56.3324" gradientUnits="userSpaceOnUse">
<stop stop-color="#EF8080"/>
<stop offset="1" stop-color="#F0145A"/>
</linearGradient>
<linearGradient id="paint1_linear_46_1119" x1="41.5647" y1="40.1578" x2="41.5647" y2="63.5425" gradientUnits="userSpaceOnUse">
<stop stop-color="#EF8080"/>
<stop offset="1" stop-color="#F0145A"/>
</linearGradient>
</defs>
</svg>
