<svg width="65" height="64" viewBox="0 0 65 64" fill="none" xmlns="http://www.w3.org/2000/svg">
<g clip-path="url(#clip0_46_1106)">
<path d="M61.1931 37.7273C60.5056 37.4426 59.7819 37.2982 59.042 37.2982C57.4102 37.2982 55.903 37.9946 54.8564 39.1616L53.6364 38.6562L50.1563 37.2147C50.6501 35.5616 50.9166 33.8113 50.9166 31.9998C50.9166 30.1883 50.65 28.4381 50.1563 26.7849L53.6364 25.3435L54.8564 24.8381C55.903 26.0051 57.4102 26.7014 59.042 26.7014C59.7819 26.7014 60.5056 26.5571 61.1931 26.2722C64.0585 25.0852 65.4242 21.7883 64.2372 18.9227C63.3632 16.8128 61.3227 15.4493 59.039 15.4493C58.2991 15.4493 57.5754 15.5937 56.8879 15.8786C54.6296 16.814 53.3041 19.0598 53.4241 21.3722L52.197 21.8805L48.718 23.3215C47.0279 20.208 44.4584 17.6383 41.3449 15.9483L42.7859 12.4694L43.2936 11.2436C43.392 11.2487 43.4906 11.2517 43.5896 11.2517C45.8735 11.2517 47.9139 9.88836 48.788 7.77836C49.9749 4.91287 48.6093 1.61587 45.7438 0.428874C45.0561 0.144375 44.3325 0 43.5926 0C41.3088 0 39.2684 1.36337 38.3943 3.47337C37.4589 5.73161 38.1096 8.25698 39.8296 9.80723L39.3231 11.0301L37.8816 14.5102C36.2285 14.0165 34.4783 13.7498 32.6668 13.7498C30.8553 13.7498 29.105 14.0165 27.4519 14.5102L26.0104 11.0301L25.5039 9.80723C27.2239 8.25698 27.8747 5.73161 26.9393 3.47324C26.0652 1.36337 24.0245 0 21.7408 0C21.0009 0 20.2772 0.144375 19.5897 0.429249C16.7243 1.61625 15.3586 4.91312 16.5456 7.77874C17.4196 9.88861 19.4601 11.2521 21.7438 11.2521C21.8428 11.2521 21.9414 11.2491 22.0398 11.244L22.5476 12.4697L23.9885 15.9487C20.8751 17.6388 18.3054 20.2083 16.6154 23.3218L13.1364 21.8808L11.9093 21.3726C12.0293 19.0602 10.7038 16.8143 8.44558 15.8788C7.75808 15.5941 7.03433 15.4497 6.29446 15.4497C4.01059 15.4497 1.97022 16.8131 1.09609 18.9231C-0.0907808 21.7886 1.27484 25.0856 4.14034 26.2726C4.82784 26.5573 5.55158 26.7017 6.29146 26.7017C7.9232 26.7017 9.43045 26.0053 10.4771 24.8383L11.6971 25.3437L15.1772 26.7852C14.6833 28.4383 14.4168 30.1886 14.4168 32.0001C14.4168 33.8116 14.6834 35.5618 15.1772 37.2149L11.6969 38.6562L10.4769 39.1616C9.43033 37.9946 7.92308 37.2982 6.29133 37.2982C5.55146 37.2982 4.82771 37.4426 4.14021 37.7274C1.27484 38.9144 -0.0909059 42.2113 1.09609 45.0769C1.97009 47.1868 4.01059 48.5503 6.29433 48.5503C7.03421 48.5503 7.75795 48.4059 8.44545 48.121C10.7037 47.1857 12.0292 44.9398 11.9092 42.6274L13.1363 42.1192L16.6153 40.6782C18.3054 43.7917 20.8749 46.3613 23.9884 48.0513L22.5474 51.5303L22.0397 52.756C21.9413 52.7509 21.8427 52.7479 21.7437 52.7479C19.4598 52.7479 17.4194 54.1113 16.5453 56.2213C15.3584 59.0868 16.7241 62.3838 19.5896 63.5708C20.2771 63.8555 21.0008 63.9999 21.7407 63.9999C24.0245 63.9999 26.0649 62.6365 26.939 60.5265C27.8744 58.2683 27.2237 55.7429 25.5037 54.1926L26.0102 52.9698L27.4517 49.4897C29.1048 49.9834 30.855 50.25 32.6665 50.25C34.478 50.25 36.2283 49.9834 37.8814 49.4897L39.3229 52.9698L39.8294 54.1926C38.1094 55.7429 37.4586 58.2683 38.394 60.5266C39.268 62.6365 41.3085 64 43.5923 64C44.3321 64 45.0559 63.8556 45.7434 63.5708C48.6088 62.3838 49.9745 59.0869 48.7875 56.2213C47.9135 54.1114 45.873 52.7479 43.5893 52.7479C43.4903 52.7479 43.3916 52.7509 43.2933 52.756L42.7855 51.5303L41.3445 48.0513C44.458 46.3612 47.0276 43.7917 48.7176 40.6782L52.1966 42.1192L53.4237 42.6274C53.3037 44.9398 54.6292 47.1857 56.8875 48.1212C57.575 48.4059 58.2987 48.5503 59.0386 48.5503C61.3225 48.5503 63.3629 47.1869 64.237 45.0769C65.4242 42.2113 64.0587 38.9143 61.1931 37.7273ZM32.6668 46.4998C24.6715 46.4998 18.1668 39.995 18.1668 31.9998C18.1668 24.0046 24.6715 17.4998 32.6668 17.4998C40.662 17.4998 47.1668 24.0046 47.1668 31.9998C47.1668 39.995 40.6619 46.4998 32.6668 46.4998Z" fill="black"/>
<path d="M61.1931 37.7273C60.5056 37.4426 59.7819 37.2982 59.042 37.2982C57.4102 37.2982 55.903 37.9946 54.8564 39.1616L53.6364 38.6562L50.1563 37.2147C50.6501 35.5616 50.9166 33.8113 50.9166 31.9998C50.9166 30.1883 50.65 28.4381 50.1563 26.7849L53.6364 25.3435L54.8564 24.8381C55.903 26.0051 57.4102 26.7014 59.042 26.7014C59.7819 26.7014 60.5056 26.5571 61.1931 26.2722C64.0585 25.0852 65.4242 21.7883 64.2372 18.9227C63.3632 16.8128 61.3227 15.4493 59.039 15.4493C58.2991 15.4493 57.5754 15.5937 56.8879 15.8786C54.6296 16.814 53.3041 19.0598 53.4241 21.3722L52.197 21.8805L48.718 23.3215C47.0279 20.208 44.4584 17.6383 41.3449 15.9483L42.7859 12.4694L43.2936 11.2436C43.392 11.2487 43.4906 11.2517 43.5896 11.2517C45.8735 11.2517 47.9139 9.88836 48.788 7.77836C49.9749 4.91287 48.6093 1.61587 45.7438 0.428874C45.0561 0.144375 44.3325 0 43.5926 0C41.3088 0 39.2684 1.36337 38.3943 3.47337C37.4589 5.73161 38.1096 8.25698 39.8296 9.80723L39.3231 11.0301L37.8816 14.5102C36.2285 14.0165 34.4783 13.7498 32.6668 13.7498C30.8553 13.7498 29.105 14.0165 27.4519 14.5102L26.0104 11.0301L25.5039 9.80723C27.2239 8.25698 27.8747 5.73161 26.9393 3.47324C26.0652 1.36337 24.0245 0 21.7408 0C21.0009 0 20.2772 0.144375 19.5897 0.429249C16.7243 1.61625 15.3586 4.91312 16.5456 7.77874C17.4196 9.88861 19.4601 11.2521 21.7438 11.2521C21.8428 11.2521 21.9414 11.2491 22.0398 11.244L22.5476 12.4697L23.9885 15.9487C20.8751 17.6388 18.3054 20.2083 16.6154 23.3218L13.1364 21.8808L11.9093 21.3726C12.0293 19.0602 10.7038 16.8143 8.44558 15.8788C7.75808 15.5941 7.03433 15.4497 6.29446 15.4497C4.01059 15.4497 1.97022 16.8131 1.09609 18.9231C-0.0907808 21.7886 1.27484 25.0856 4.14034 26.2726C4.82784 26.5573 5.55158 26.7017 6.29146 26.7017C7.9232 26.7017 9.43045 26.0053 10.4771 24.8383L11.6971 25.3437L15.1772 26.7852C14.6833 28.4383 14.4168 30.1886 14.4168 32.0001C14.4168 33.8116 14.6834 35.5618 15.1772 37.2149L11.6969 38.6562L10.4769 39.1616C9.43033 37.9946 7.92308 37.2982 6.29133 37.2982C5.55146 37.2982 4.82771 37.4426 4.14021 37.7274C1.27484 38.9144 -0.0909059 42.2113 1.09609 45.0769C1.97009 47.1868 4.01059 48.5503 6.29433 48.5503C7.03421 48.5503 7.75795 48.4059 8.44545 48.121C10.7037 47.1857 12.0292 44.9398 11.9092 42.6274L13.1363 42.1192L16.6153 40.6782C18.3054 43.7917 20.8749 46.3613 23.9884 48.0513L22.5474 51.5303L22.0397 52.756C21.9413 52.7509 21.8427 52.7479 21.7437 52.7479C19.4598 52.7479 17.4194 54.1113 16.5453 56.2213C15.3584 59.0868 16.7241 62.3838 19.5896 63.5708C20.2771 63.8555 21.0008 63.9999 21.7407 63.9999C24.0245 63.9999 26.0649 62.6365 26.939 60.5265C27.8744 58.2683 27.2237 55.7429 25.5037 54.1926L26.0102 52.9698L27.4517 49.4897C29.1048 49.9834 30.855 50.25 32.6665 50.25C34.478 50.25 36.2283 49.9834 37.8814 49.4897L39.3229 52.9698L39.8294 54.1926C38.1094 55.7429 37.4586 58.2683 38.394 60.5266C39.268 62.6365 41.3085 64 43.5923 64C44.3321 64 45.0559 63.8556 45.7434 63.5708C48.6088 62.3838 49.9745 59.0869 48.7875 56.2213C47.9135 54.1114 45.873 52.7479 43.5893 52.7479C43.4903 52.7479 43.3916 52.7509 43.2933 52.756L42.7855 51.5303L41.3445 48.0513C44.458 46.3612 47.0276 43.7917 48.7176 40.6782L52.1966 42.1192L53.4237 42.6274C53.3037 44.9398 54.6292 47.1857 56.8875 48.1212C57.575 48.4059 58.2987 48.5503 59.0386 48.5503C61.3225 48.5503 63.3629 47.1869 64.237 45.0769C65.4242 42.2113 64.0587 38.9143 61.1931 37.7273ZM32.6668 46.4998C24.6715 46.4998 18.1668 39.995 18.1668 31.9998C18.1668 24.0046 24.6715 17.4998 32.6668 17.4998C40.662 17.4998 47.1668 24.0046 47.1668 31.9998C47.1668 39.995 40.6619 46.4998 32.6668 46.4998Z" fill="url(#paint0_linear_46_1106)"/>
<path d="M32.6669 21.2498C26.7394 21.2498 21.9169 26.0722 21.9169 31.9997C21.9169 37.9272 26.7394 42.7497 32.6669 42.7497C38.5943 42.7497 43.4168 37.9272 43.4168 31.9997C43.4168 26.0722 38.5943 21.2498 32.6669 21.2498ZM34.5418 36.1247H30.7919V27.8747H34.5418V36.1247Z" fill="black"/>
<path d="M32.6669 21.2498C26.7394 21.2498 21.9169 26.0722 21.9169 31.9997C21.9169 37.9272 26.7394 42.7497 32.6669 42.7497C38.5943 42.7497 43.4168 37.9272 43.4168 31.9997C43.4168 26.0722 38.5943 21.2498 32.6669 21.2498ZM34.5418 36.1247H30.7919V27.8747H34.5418V36.1247Z" fill="url(#paint1_linear_46_1106)"/>
</g>
<defs>
<linearGradient id="paint0_linear_46_1106" x1="32.6667" y1="0" x2="32.6667" y2="64" gradientUnits="userSpaceOnUse">
<stop stop-color="#EF8080"/>
<stop offset="1" stop-color="#F0145A"/>
</linearGradient>
<linearGradient id="paint1_linear_46_1106" x1="32.6669" y1="21.2498" x2="32.6669" y2="42.7497" gradientUnits="userSpaceOnUse">
<stop stop-color="#EF8080"/>
<stop offset="1" stop-color="#F0145A"/>
</linearGradient>
<clipPath id="clip0_46_1106">
<rect width="64" height="64" fill="white" transform="translate(0.666748)"/>
</clipPath>
</defs>
</svg>
